<?xml version="1.0" standalone="no"?>
<!DOCTYPE svg PUBLIC "-//W3C//DTD SVG 20010904//EN"
 "http://www.w3.org/TR/2001/REC-SVG-20010904/DTD/svg10.dtd">
<svg version="1.0" xmlns="http://www.w3.org/2000/svg"
 width="1067.000000pt" height="1067.000000pt" viewBox="0 0 1067.000000 1067.000000"
 preserveAspectRatio="xMidYMid meet">
<metadata>
Created by potrace 1.11, written by Peter Selinger 2001-2013
</metadata>
<g transform="translate(0.000000,1067.000000) scale(0.100000,-0.100000)"
fill="#000000" stroke="none">
<path d="M3460 10661 c-89 -29 -166 -97 -201 -176 -27 -60 -27 -69 -28 -282
l-1 -191 -32 -7 c-47 -9 -198 -55 -233 -70 -16 -7 -44 -18 -61 -25 -17 -6 -76
-36 -130 -66 -54 -30 -99 -54 -99 -54 -1 0 -67 64 -147 143 -128 126 -152 146
-207 167 -208 78 -432 -87 -419 -310 2 -41 12 -82 26 -111 16 -34 147 -171
475 -501 910 -915 957 -967 1339 -1498 385 -537 669 -1012 832 -1396 26 -60
51 -116 56 -126 9 -17 42 -102 103 -268 90 -244 204 -681 232 -890 2 -14 6
-41 9 -60 14 -81 15 -93 8 -84 -5 5 -34 42 -66 82 -65 81 -179 190 -271 260
-33 25 -62 49 -65 52 -12 15 -180 116 -263 159 -107 56 -209 98 -432 176 -88
31 -173 61 -188 67 l-28 11 7 76 c10 105 11 205 3 276 -4 33 -10 85 -13 116
-4 31 -11 71 -16 89 l-9 32 107 50 c225 105 249 118 288 152 116 102 134 296
38 421 -36 48 -103 93 -162 110 -60 18 -159 12 -208 -11 -22 -11 -41 -19 -44
-20 -3 0 -45 -20 -95 -43 -49 -24 -113 -53 -142 -66 l-51 -23 -26 36 c-49 69
-219 232 -311 297 l-92 65 65 178 c76 207 86 277 50 371 -25 67 -99 144 -166
173 -57 26 -178 30 -232 8 -119 -48 -159 -103 -241 -333 l-64 -178 -70 8
c-157 16 -379 4 -491 -26 -31 -9 -32 -8 -60 53 -78 173 -144 303 -163 323
-125 132 -319 142 -454 24 -84 -74 -120 -232 -77 -339 20 -51 124 -275 141
-306 6 -10 7 -22 2 -26 -4 -4 -37 -32 -73 -62 -114 -96 -214 -206 -289 -321
-47 -70 -51 -73 -79 -57 -54 30 -363 131 -410 135 -120 9 -245 -64 -303 -176
-28 -54 -35 -179 -14 -239 20 -57 73 -124 125 -157 25 -16 207 -86 410 -157
201 -70 412 -145 470 -166 58 -21 274 -98 480 -170 206 -73 445 -157 530 -187
562 -199 991 -564 1257 -1072 24 -46 42 -86 39 -89 -3 -3 -203 -5 -443 -6
-423 -1 -440 -2 -484 -23 -63 -29 -125 -87 -157 -147 l-27 -51 -2 -410 c-2
-372 -1 -418 17 -497 72 -328 281 -569 600 -693 l55 -21 42 -170 c23 -93 83
-333 133 -534 51 -201 93 -372 95 -380 1 -8 56 -226 120 -485 64 -259 118
-478 120 -488 2 -10 7 -27 10 -37 3 -10 7 -27 10 -37 17 -84 59 -235 75 -269
26 -54 91 -117 149 -146 l46 -23 1945 -3 c2190 -3 2007 -9 2099 74 27 24 60
67 75 96 18 36 93 321 237 903 115 468 246 997 291 1176 l80 327 42 12 c114
34 276 137 370 234 112 117 198 273 238 432 22 85 23 106 23 509 l0 420 -28
57 c-32 65 -89 121 -156 152 -44 20 -63 21 -391 24 -189 2 -346 5 -348 6 -6 7
2 258 13 386 2 25 7 95 11 155 3 61 8 119 10 130 2 11 6 54 10 95 7 101 13
150 18 180 3 14 8 54 11 90 3 36 7 76 10 90 2 14 7 43 10 65 5 38 20 136 31
200 25 153 55 308 95 480 17 72 32 137 34 145 26 121 161 540 212 660 3 8 7
20 8 25 6 22 115 266 166 370 104 209 214 399 366 626 85 128 103 146 765 809
765 765 733 727 732 871 -1 95 -33 169 -99 227 -68 60 -130 81 -223 78 -110
-3 -149 -27 -314 -190 -75 -75 -141 -136 -146 -136 -5 0 -34 15 -64 33 -48 29
-102 54 -193 92 -49 21 -187 62 -232 70 l-41 6 0 203 c0 111 -3 218 -7 237
-20 90 -100 183 -188 217 -113 44 -251 17 -337 -67 -80 -78 -98 -149 -95 -391
1 -91 -2 -172 -6 -181 -5 -9 -33 -21 -66 -28 -130 -29 -335 -112 -443 -179
l-34 -21 -151 148 c-131 129 -158 151 -210 170 -73 28 -175 25 -245 -6 -66
-29 -134 -102 -160 -171 -29 -75 -24 -185 10 -252 13 -25 82 -105 159 -183 75
-75 138 -142 140 -148 2 -6 -6 -24 -18 -40 -21 -29 -70 -121 -110 -212 -24
-52 -74 -203 -85 -254 l-7 -31 -202 0 c-217 0 -249 -6 -324 -56 -163 -111
-177 -369 -27 -492 86 -70 116 -77 343 -78 l203 -1 34 -119 c31 -106 77 -229
106 -280 5 -11 22 -40 36 -65 14 -25 38 -65 54 -89 17 -25 26 -47 21 -55 -4
-6 -44 -57 -89 -112 -250 -307 -483 -647 -671 -980 -147 -262 -322 -675 -408
-967 -16 -54 -32 -98 -35 -97 -3 0 -31 54 -63 119 -191 388 -490 818 -910
1305 -129 150 -202 232 -226 256 -14 14 -54 57 -87 95 -34 38 -75 83 -90 99
-40 42 -313 331 -320 338 -3 3 13 38 37 78 78 134 143 294 170 422 6 26 14 47
17 48 4 1 97 2 207 4 176 2 207 5 255 24 222 85 265 393 75 538 -73 57 -108
64 -334 66 l-204 2 -8 25 c-4 14 -17 59 -29 100 -34 120 -116 302 -171 381
l-18 26 142 144 c172 174 191 207 191 324 0 104 -27 167 -98 233 -70 63 -134
85 -229 80 -108 -6 -145 -29 -306 -189 -77 -76 -143 -139 -146 -139 -4 0 -19
8 -33 18 -29 20 -138 77 -213 110 -26 12 -96 35 -155 53 -60 17 -115 34 -123
38 -10 5 -13 51 -15 216 -1 191 -3 214 -23 256 -29 64 -87 126 -147 156 -53
27 -177 40 -226 24z"/>
</g>
</svg>
